{"title":"The Mummy III.2008.DVDRip.XViD.AC3(5.1)SWESUB.avi","uid":5518204,"size":1471380266,"categoryP":"video","categoryS":"movies","magnet":"?xt=urn:btih:6c4ac1afa885c549bfd8c4bf675c8f74a6f2d2e1&amp;dn=The+Mummy+III.2008.DVDRip.XViD.AC3%285.1%29SWESUB.avi&amp;tr=udp%3A%2F%2Ftracker.openbittorrent.com%3A80&amp;tr=udp%3A%2F%2Fopen.demonii.com%3A1337&amp;tr=udp%3A%2F%2Ftracker.coppersurfer.tk%3A6969&amp;tr=udp%3A%2F%2Fexodus.desync.com%3A6969","seeders":1,"leechers":0,"uploader":"Zen_Bud","files":-1,"time":1272349279,"description":"General\nComplete name                    : The Mummy. Tomb of the Dragon Emperor.avi\nFormat                           : AVI\nFile size                        : 1.37 GiB\nDuration                         : 1h 51mn\nOverall bit rate                 : 1 757 Kbps\n\nVideo\nID                               : 0\nFormat                           : MPEG-4 Visual\nCodec ID/Hint                    : XviD\nDuration                         : 1h 51mn\nBit rate                         : 1 298 Kbps\nWidth                            : 720 pixels\nHeight                           : 428 pixels\nDisplay aspect ratio             : 2.35:1\nResolution                       : 8 bits\nColorimetry                      : 4:2:0\nScan type                        : Progressive\nBits/(Pixel*Frame)               : 0.168\nStream size                      : 1.01 GiB (74%)\nWriting library                  : XviD 1.1.2 (UTC 2006-11-01)\n\nAudio\nID                               : 1\nFormat                           : AC-3\nFormat/Info                      : Audio Coding 3\nCodec ID                         : 2000\nDuration                         : 1h 51mn\nBit rate mode                    : Constant\nBit rate                         : 448 Kbps\nChannel(s)                       : 6 channels\nChannel positions                : Front: L C R, Side: L R, LFE\nSampling rate                    : 48.0 KHz\nStream size                      : 358 MiB (26%)\n\n","torrent":{"xt":"urn:btih:6c4ac1afa885c549bfd8c4bf675c8f74a6f2d2e1","amp;dn":"The+Mummy+III.2008.DVDRip.XViD.AC3%285.1%29SWESUB.avi","amp;tr":["udp%3A%2F%2Ftracker.openbittorrent.com%3A80","udp%3A%2F%2Fopen.demonii.com%3A1337","udp%3A%2F%2Ftracker.coppersurfer.tk%3A6969","udp%3A%2F%2Fexodus.desync.com%3A6969"],"infoHash":"6c4ac1afa885c549bfd8c4bf675c8f74a6f2d2e1","infoHashBuffer":{"type":"Buffer","data":[108,74,193,175,168,133,197,73,191,216,196,191,103,92,143,116,166,242,210,225]},"announce":[],"urlList":[]}}